<svg xmlns="http://www.w3.org/2000/svg" viewBox="0 0 908 387" width="908" height="387"><title>david-logo</title><defs><image width="1280" height="720" id="img1"></image><image width="1280" height="720" id="img2"></image><image width="908" height="387" id="img3"></image><image width="829" height="18" id="img4"></image></defs><style>
		tspan { white-space:pre }
	</style><use id="fondo" style="display: none" href="#img1" x="-160" y="-164"></use><use id="Layer 4" style="display: none" href="#img2" x="-160" y="-164"></use><use id="main_dark_site" style="display: none" href="#img3" x="0" y="0"></use><path id="D " fill="#ffffff" aria-label="D" d="M429.5 94.4Q437.3 102.2 442.7 113Q448.1 123.8 451.1 136.4Q454.1 149 453.5 162.2Q453.5 174.8 449.9 186.2Q434.3 278 358.1 339.2Q349.7 345.2 341.9 347Q334.1 348.2 326.9 353Q322.1 356 317.3 357.8Q313.1 359.6 307.1 359.6Q305.9 356.6 306.5 354.2Q307.1 351.8 308.3 348.8Q308.9 346.4 308.3 343.4Q308.3 339.8 309.5 337.4Q311.9 333.2 313.7 329.6Q316.1 326 316.7 323Q316.7 320 312.5 317Q308.9 313.4 307.1 308.6Q299.3 289.4 293.9 265.4Q288.5 240.8 284.3 215Q280.7 188.6 277.7 162.8Q275.3 136.4 273.5 113.6L259.1 119.6Q256.1 120.8 254.9 115.4Q253.7 110 254.9 105.2L257.9 93.8Q259.1 90.8 259.1 87.2Q259.1 83 262.7 80Q268.7 75.2 280.1 69.2Q292.1 63.2 307.1 63.8Q322.1 56 338.9 54.2Q355.7 52.4 371.9 56.6Q388.1 60.2 403.1 69.8Q418.1 79.4 429.5 94.4ZM429.5 125Q421.7 105.8 404.9 98Q388.7 89.6 369.5 88.4Q350.9 87.2 333.5 91.4Q316.1 95.6 307.1 101.6Q308.9 121.4 310.7 146Q313.1 170.6 316.1 197Q319.7 222.8 324.5 249.2Q329.9 275.6 337.7 298.4Q360.5 283.4 379.1 264.8Q397.7 245.6 410.3 224Q422.9 201.8 427.7 177.2Q433.1 152 429.5 125Z"></path><path id="R" fill="#ffffff" aria-label="R" d="M652.63 338.5Q642.16 340.62 630.85 337.79Q619.51 334.81 609.51 328.31Q599.67 321.78 593.2 313.38Q582.32 299.23 574.76 285.42Q567.2 271.62 557.16 250.65Q549.23 234.2 543.74 223.89Q538.37 213.39 531.37 202.37L529.56 199.33Q525.55 192.13 522.47 189.52Q519.51 186.71 514.11 187.8Q513.13 188 510.9 188.79L504.95 190.51Q500.4 191.6 498.4 192.69Q496.41 193.77 495.76 196.46Q495.08 198.98 496.14 204.22Q498.79 217.32 499.83 230.05Q500.47 235.72 501.4 242.85Q502.33 249.99 504.26 259.48Q505.81 267.18 507.6 277.72Q509.4 288.26 510.26 294.22L510.79 297.69Q512.05 303.91 516.21 316.02Q519.84 327.21 520.6 330.97Q521.99 337.85 519.44 339.56Q508.94 345.77 502.59 348.93Q496.41 352.05 490.03 353.35Q482.66 354.84 475.62 352.85Q468.57 350.87 460.96 344.41Q449.64 334.77 442.92 320.97Q436.34 306.96 432.77 289.29Q430.98 280.45 429.94 271.97Q428.87 263.33 427.37 248.3Q426.96 242.93 425.52 230.78Q419.48 179.02 413.15 146.05Q411.66 138.69 407.96 128.02Q406.71 124.35 404.37 116.14Q403.44 113.26 398.67 103.15Q393.9 93.04 392.49 91.96Q394.16 90.94 395.36 89.34Q396.54 87.57 397.84 84.75Q399.83 80.25 402.18 77.56Q404.7 74.84 409.77 73.81Q414.03 72.95 419.23 73.43Q424.41 73.75 431.45 74.88Q440.23 76.17 444.16 76.22Q447.08 76.31 449.83 77.29Q452.55 78.1 455.93 79.63Q461.17 81.98 464.48 82.33Q466.71 82.39 470.31 79.96Q474.07 77.5 479.49 73.16Q486.42 67.84 488.29 66.95Q496.44 63.43 503.96 61.9Q519.51 58.76 534.91 62.46Q550.48 66.12 564.03 75.82Q573.38 82.44 580.05 91.83Q586.72 101.21 588.8 111.52Q590.59 120.36 588.55 128.78Q586.5 137.2 580 144.65Q572.49 153.84 566.51 159.65Q560.66 165.26 553.3 169.31Q551.21 170.76 551.48 172.06Q551.87 174.03 555.51 176.02Q559.28 177.81 566.89 180.87Q573.15 183.18 574 184.03Q575.05 185.01 577.41 186.58Q579.74 187.98 580.69 188.47Q590.86 194.08 594.51 198.62Q595.42 199.8 600.15 205.49Q605.05 211.14 610.9 219.84Q614.35 224.25 615.63 226.38Q617.04 228.31 618.06 230.83Q618.92 233.38 620.66 236.95L622.54 241.17Q627.77 253.57 630.21 258.02Q634.78 265.44 640.36 273.68Q646.05 282.41 650.69 290.16Q651.67 290.81 655.89 301.55Q660.23 312.08 660.53 312.7Q661.88 315.16 663.88 316.63Q666.04 318.06 669.65 319.89Q672.31 321.22 673.32 322.04Q674.47 322.66 674.7 323.81Q675.07 325.61 671.47 328.89Q667.29 332.63 665.62 333.65Q664.12 334.64 658.75 336.75Q655.74 337.87 652.63 338.5ZM534.27 139.26Q534.98 134.34 534.47 126.78Q534.1 119.02 532.54 111.32Q530.35 100.52 526.4 92.8Q522.59 84.89 517.14 82.41Q508.85 78.46 498.05 80.65Q490.52 82.18 482.5 86.35Q475.54 89.81 473.64 93.09Q471.72 96.2 472.78 101.44L473.8 105.66Q474.53 107.56 474.79 108.87Q477.76 118.49 479.45 123.43Q482.02 131.09 484.36 139.31Q486.84 147.32 488.19 154.03Q489.22 159.11 489.79 164.44Q490.88 169.85 493.64 171.67Q496.56 173.47 500.81 172.61Q504.25 171.91 511.71 168.36L515.44 166.58Q524.43 162.2 528.32 156.14Q532.37 150.04 534.27 139.26Z"></path><use id="barra" href="#img4" x="39" y="336"></use></svg>